<?xml version="1.0" encoding="UTF-8" standalone="no"?>
<!DOCTYPE svg PUBLIC "-//W3C//DTD SVG 1.1//EN"
 "http://www.w3.org/Graphics/SVG/1.1/DTD/svg11.dtd">
<!-- Generated by graphviz version 2.40.1 (20161225.0304)
 -->
<!-- Title: dependencies Pages: 1 -->
<svg width="2206pt" height="284pt"
 viewBox="0.00 0.00 2206.00 284.00" xmlns="http://www.w3.org/2000/svg" xmlns:xlink="http://www.w3.org/1999/xlink">
<g id="graph0" class="graph" transform="scale(1 1) rotate(0) translate(4 280)">
<title>dependencies</title>
<polygon fill="#ffffff" stroke="transparent" points="-4,4 -4,-280 2202,-280 2202,4 -4,4"/>
<text text-anchor="start" x="1078.0091" y="-42.4" font-family="sans-serif" font-weight="bold" font-size="14.00" fill="#000000">Legend</text>
<polygon fill="#ffffb3" stroke="transparent" points="865,-10 865,-30 885,-30 885,-10 865,-10"/>
<text text-anchor="start" x="888.629" y="-15.4" font-family="sans-serif" font-size="14.00" fill="#000000"> &#160;Declarations</text>
<polygon fill="#8dd3c7" stroke="transparent" points="978,-10 978,-30 998,-30 998,-10 978,-10"/>
<text text-anchor="start" x="1001.7251" y="-15.4" font-family="sans-serif" font-size="14.00" fill="#000000"> &#160;Module</text>
<polygon fill="#80b1d3" stroke="transparent" points="1064,-10 1064,-30 1084,-30 1084,-10 1064,-10"/>
<text text-anchor="start" x="1087.7812" y="-15.4" font-family="sans-serif" font-size="14.00" fill="#000000"> &#160;Bootstrap</text>
<polygon fill="#fdb462" stroke="transparent" points="1161,-10 1161,-30 1181,-30 1181,-10 1161,-10"/>
<text text-anchor="start" x="1184.6732" y="-15.4" font-family="sans-serif" font-size="14.00" fill="#000000"> &#160;Providers</text>
<polygon fill="#fb8072" stroke="transparent" points="1257,-10 1257,-30 1277,-30 1277,-10 1257,-10"/>
<text text-anchor="start" x="1280.7258" y="-15.4" font-family="sans-serif" font-size="14.00" fill="#000000"> &#160;Exports</text>
<g id="clust1" class="cluster">
<title>cluster_AppModule</title>
<polygon fill="none" stroke="#000000" stroke-dasharray="1,5" points="8,-70 8,-268 2190,-268 2190,-70 8,-70"/>
</g>
<g id="clust2" class="cluster">
<title>cluster_AppModule_declarations</title>
<polygon fill="none" stroke="#000000" points="298,-78 298,-130 2182,-130 2182,-78 298,-78"/>
</g>
<g id="clust17" class="cluster">
<title>cluster_AppModule_bootstrap</title>
<polygon fill="none" stroke="#000000" points="1062,-208 1062,-260 1186,-260 1186,-208 1062,-208"/>
</g>
<g id="clust18" class="cluster">
<title>cluster_AppModule_providers</title>
<polygon fill="none" stroke="#000000" points="16,-78 16,-130 290,-130 290,-78 16,-78"/>
</g>
<!-- AppComponent -->
<g id="node1" class="node">
<title>AppComponent</title>
<polygon fill="#ffffb3" stroke="#000000" points="2173.9399,-122 2068.0601,-122 2068.0601,-86 2173.9399,-86 2173.9399,-122"/>
<text text-anchor="middle" x="2121" y="-99.8" font-family="Times,serif" font-size="14.00" fill="#000000">AppComponent</text>
</g>
<!-- AppModule -->
<g id="node13" class="node">
<title>AppModule</title>
<polygon fill="#8dd3c7" stroke="#000000" points="1165.6571,-187 1162.6571,-191 1141.6571,-191 1138.6571,-187 1082.3429,-187 1082.3429,-151 1165.6571,-151 1165.6571,-187"/>
<text text-anchor="middle" x="1124" y="-164.8" font-family="Times,serif" font-size="14.00" fill="#000000">AppModule</text>
</g>
<!-- AppComponent&#45;&gt;AppModule -->
<g id="edge1" class="edge">
<title>AppComponent&#45;&gt;AppModule</title>
<path fill="none" stroke="#000000" d="M2121,-122.0908C2121,-145.1328 2121,-182 2121,-182 2121,-182 1175.8862,-182 1175.8862,-182"/>
<polygon fill="#000000" stroke="#000000" points="1175.8863,-178.5001 1165.8862,-182 1175.8862,-185.5001 1175.8863,-178.5001"/>
</g>
<!-- CarouselComponent -->
<g id="node2" class="node">
<title>CarouselComponent</title>
<polygon fill="#ffffb3" stroke="#000000" points="2050.594,-122 1919.406,-122 1919.406,-86 2050.594,-86 2050.594,-122"/>
<text text-anchor="middle" x="1985" y="-99.8" font-family="Times,serif" font-size="14.00" fill="#000000">CarouselComponent</text>
</g>
<!-- CarouselComponent&#45;&gt;AppModule -->
<g id="edge2" class="edge">
<title>CarouselComponent&#45;&gt;AppModule</title>
<path fill="none" stroke="#000000" d="M1985,-122.0449C1985,-143.6623 1985,-177 1985,-177 1985,-177 1175.8188,-177 1175.8188,-177"/>
<polygon fill="#000000" stroke="#000000" points="1175.8188,-173.5001 1165.8188,-177 1175.8188,-180.5001 1175.8188,-173.5001"/>
</g>
<!-- CurrencySwitcherComponent -->
<g id="node3" class="node">
<title>CurrencySwitcherComponent</title>
<polygon fill="#ffffb3" stroke="#000000" points="1901.6797,-122 1718.3203,-122 1718.3203,-86 1901.6797,-86 1901.6797,-122"/>
<text text-anchor="middle" x="1810" y="-99.8" font-family="Times,serif" font-size="14.00" fill="#000000">CurrencySwitcherComponent</text>
</g>
<!-- CurrencySwitcherComponent&#45;&gt;AppModule -->
<g id="edge3" class="edge">
<title>CurrencySwitcherComponent&#45;&gt;AppModule</title>
<path fill="none" stroke="#000000" d="M1810,-122.2228C1810,-142.3652 1810,-172 1810,-172 1810,-172 1175.8797,-172 1175.8797,-172"/>
<polygon fill="#000000" stroke="#000000" points="1175.8798,-168.5001 1165.8797,-172 1175.8797,-175.5001 1175.8798,-168.5001"/>
</g>
<!-- EvenUppercasePipe -->
<g id="node4" class="node">
<title>EvenUppercasePipe</title>
<polygon fill="#ffffb3" stroke="#000000" points="1700.2255,-122 1571.7745,-122 1571.7745,-86 1700.2255,-86 1700.2255,-122"/>
<text text-anchor="middle" x="1636" y="-99.8" font-family="Times,serif" font-size="14.00" fill="#000000">EvenUppercasePipe</text>
</g>
<!-- EvenUppercasePipe&#45;&gt;AppModule -->
<g id="edge4" class="edge">
<title>EvenUppercasePipe&#45;&gt;AppModule</title>
<path fill="none" stroke="#000000" d="M1636,-122.2222C1636,-140.8285 1636,-167 1636,-167 1636,-167 1175.8991,-167 1175.8991,-167"/>
<polygon fill="#000000" stroke="#000000" points="1175.8991,-163.5001 1165.8991,-167 1175.8991,-170.5001 1175.8991,-163.5001"/>
</g>
<!-- HeaderComponent -->
<g id="node5" class="node">
<title>HeaderComponent</title>
<polygon fill="#ffffb3" stroke="#000000" points="1553.7437,-122 1432.2563,-122 1432.2563,-86 1553.7437,-86 1553.7437,-122"/>
<text text-anchor="middle" x="1493" y="-99.8" font-family="Times,serif" font-size="14.00" fill="#000000">HeaderComponent</text>
</g>
<!-- HeaderComponent&#45;&gt;AppModule -->
<g id="edge5" class="edge">
<title>HeaderComponent&#45;&gt;AppModule</title>
<path fill="none" stroke="#000000" d="M1493,-122.0336C1493,-139.0597 1493,-162 1493,-162 1493,-162 1175.9697,-162 1175.9697,-162"/>
<polygon fill="#000000" stroke="#000000" points="1175.9698,-158.5001 1165.9697,-162 1175.9697,-165.5001 1175.9698,-158.5001"/>
</g>
<!-- HelloComponent -->
<g id="node6" class="node">
<title>HelloComponent</title>
<polygon fill="#ffffb3" stroke="#000000" points="1414.4356,-122 1301.5644,-122 1301.5644,-86 1414.4356,-86 1414.4356,-122"/>
<text text-anchor="middle" x="1358" y="-99.8" font-family="Times,serif" font-size="14.00" fill="#000000">HelloComponent</text>
</g>
<!-- HelloComponent&#45;&gt;AppModule -->
<g id="edge6" class="edge">
<title>HelloComponent&#45;&gt;AppModule</title>
<path fill="none" stroke="#000000" d="M1358,-122.2396C1358,-137.5706 1358,-157 1358,-157 1358,-157 1175.8345,-157 1175.8345,-157"/>
<polygon fill="#000000" stroke="#000000" points="1175.8345,-153.5001 1165.8345,-157 1175.8345,-160.5001 1175.8345,-153.5001"/>
</g>
<!-- JasmineTestComponent -->
<g id="node7" class="node">
<title>JasmineTestComponent</title>
<polygon fill="#ffffb3" stroke="#000000" points="1284.0351,-122 1133.9649,-122 1133.9649,-86 1284.0351,-86 1284.0351,-122"/>
<text text-anchor="middle" x="1209" y="-99.8" font-family="Times,serif" font-size="14.00" fill="#000000">JasmineTestComponent</text>
</g>
<!-- JasmineTestComponent&#45;&gt;AppModule -->
<g id="edge7" class="edge">
<title>JasmineTestComponent&#45;&gt;AppModule</title>
<path fill="none" stroke="#000000" d="M1149.7805,-122.1061C1149.7805,-122.1061 1149.7805,-140.991 1149.7805,-140.991"/>
<polygon fill="#000000" stroke="#000000" points="1146.2806,-140.9909 1149.7805,-150.991 1153.2806,-140.991 1146.2806,-140.9909"/>
</g>
<!-- LicensePlateComponent -->
<g id="node8" class="node">
<title>LicensePlateComponent</title>
<polygon fill="#ffffb3" stroke="#000000" points="1115.3571,-122 962.6429,-122 962.6429,-86 1115.3571,-86 1115.3571,-122"/>
<text text-anchor="middle" x="1039" y="-99.8" font-family="Times,serif" font-size="14.00" fill="#000000">LicensePlateComponent</text>
</g>
<!-- LicensePlateComponent&#45;&gt;AppModule -->
<g id="edge8" class="edge">
<title>LicensePlateComponent&#45;&gt;AppModule</title>
<path fill="none" stroke="#000000" d="M1098.8002,-122.1061C1098.8002,-122.1061 1098.8002,-140.991 1098.8002,-140.991"/>
<polygon fill="#000000" stroke="#000000" points="1095.3002,-140.9909 1098.8002,-150.991 1102.3002,-140.991 1095.3002,-140.9909"/>
</g>
<!-- LoaderComponent -->
<g id="node9" class="node">
<title>LoaderComponent</title>
<polygon fill="#ffffb3" stroke="#000000" points="944.4748,-122 823.5252,-122 823.5252,-86 944.4748,-86 944.4748,-122"/>
<text text-anchor="middle" x="884" y="-99.8" font-family="Times,serif" font-size="14.00" fill="#000000">LoaderComponent</text>
</g>
<!-- LoaderComponent&#45;&gt;AppModule -->
<g id="edge9" class="edge">
<title>LoaderComponent&#45;&gt;AppModule</title>
<path fill="none" stroke="#000000" d="M884,-122.2396C884,-137.5706 884,-157 884,-157 884,-157 1072.1952,-157 1072.1952,-157"/>
<polygon fill="#000000" stroke="#000000" points="1072.1952,-160.5001 1082.1952,-157 1072.1952,-153.5001 1072.1952,-160.5001"/>
</g>
<!-- LoaderViewChildComponent -->
<g id="node10" class="node">
<title>LoaderViewChildComponent</title>
<polygon fill="#ffffb3" stroke="#000000" points="805.4115,-122 622.5885,-122 622.5885,-86 805.4115,-86 805.4115,-122"/>
<text text-anchor="middle" x="714" y="-99.8" font-family="Times,serif" font-size="14.00" fill="#000000">LoaderViewChildComponent</text>
</g>
<!-- LoaderViewChildComponent&#45;&gt;AppModule -->
<g id="edge10" class="edge">
<title>LoaderViewChildComponent&#45;&gt;AppModule</title>
<path fill="none" stroke="#000000" d="M714,-122.0336C714,-139.0597 714,-162 714,-162 714,-162 1072.0496,-162 1072.0496,-162"/>
<polygon fill="#000000" stroke="#000000" points="1072.0496,-165.5001 1082.0496,-162 1072.0496,-158.5001 1072.0496,-165.5001"/>
</g>
<!-- LoginComponent -->
<g id="node11" class="node">
<title>LoginComponent</title>
<polygon fill="#ffffb3" stroke="#000000" points="604.2758,-122 489.7242,-122 489.7242,-86 604.2758,-86 604.2758,-122"/>
<text text-anchor="middle" x="547" y="-99.8" font-family="Times,serif" font-size="14.00" fill="#000000">LoginComponent</text>
</g>
<!-- LoginComponent&#45;&gt;AppModule -->
<g id="edge11" class="edge">
<title>LoginComponent&#45;&gt;AppModule</title>
<path fill="none" stroke="#000000" d="M547,-122.2222C547,-140.8285 547,-167 547,-167 547,-167 1072.0388,-167 1072.0388,-167"/>
<polygon fill="#000000" stroke="#000000" points="1072.0388,-170.5001 1082.0388,-167 1072.0388,-163.5001 1072.0388,-170.5001"/>
</g>
<!-- PopupWindowComponent -->
<g id="node12" class="node">
<title>PopupWindowComponent</title>
<polygon fill="#ffffb3" stroke="#000000" points="471.8271,-122 306.1729,-122 306.1729,-86 471.8271,-86 471.8271,-122"/>
<text text-anchor="middle" x="389" y="-99.8" font-family="Times,serif" font-size="14.00" fill="#000000">PopupWindowComponent</text>
</g>
<!-- PopupWindowComponent&#45;&gt;AppModule -->
<g id="edge12" class="edge">
<title>PopupWindowComponent&#45;&gt;AppModule</title>
<path fill="none" stroke="#000000" d="M389,-122.2228C389,-142.3652 389,-172 389,-172 389,-172 1072.1107,-172 1072.1107,-172"/>
<polygon fill="#000000" stroke="#000000" points="1072.1107,-175.5001 1082.1107,-172 1072.1106,-168.5001 1072.1107,-175.5001"/>
</g>
<!-- AppComponent  -->
<g id="node14" class="node">
<title>AppComponent </title>
<polygon fill="#80b1d3" stroke="#000000" points="1178.439,-252 1069.561,-252 1069.561,-216 1178.439,-216 1178.439,-252"/>
<text text-anchor="middle" x="1124" y="-229.8" font-family="Times,serif" font-size="14.00" fill="#000000">AppComponent </text>
</g>
<!-- AppModule&#45;&gt;AppComponent  -->
<g id="edge13" class="edge">
<title>AppModule&#45;&gt;AppComponent </title>
<path fill="none" stroke="#000000" stroke-dasharray="1,5" d="M1124,-187.1061C1124,-187.1061 1124,-205.991 1124,-205.991"/>
<polygon fill="#000000" stroke="#000000" points="1120.5001,-205.9909 1124,-215.991 1127.5001,-205.991 1120.5001,-205.9909"/>
</g>
<!-- CartService -->
<g id="node15" class="node">
<title>CartService</title>
<ellipse fill="#fdb462" stroke="#000000" cx="225" cy="-104" rx="56.7348" ry="18"/>
<text text-anchor="middle" x="225" y="-99.8" font-family="Times,serif" font-size="14.00" fill="#000000">CartService</text>
</g>
<!-- CartService&#45;&gt;AppModule -->
<g id="edge14" class="edge">
<title>CartService&#45;&gt;AppModule</title>
<path fill="none" stroke="#000000" d="M225,-122.0449C225,-143.6623 225,-177 225,-177 225,-177 1072.1442,-177 1072.1442,-177"/>
<polygon fill="#000000" stroke="#000000" points="1072.1443,-180.5001 1082.1442,-177 1072.1442,-173.5001 1072.1443,-180.5001"/>
</g>
<!-- LoginService -->
<g id="node16" class="node">
<title>LoginService</title>
<ellipse fill="#fdb462" stroke="#000000" cx="87" cy="-104" rx="63.1209" ry="18"/>
<text text-anchor="middle" x="87" y="-99.8" font-family="Times,serif" font-size="14.00" fill="#000000">LoginService</text>
</g>
<!-- LoginService&#45;&gt;AppModule -->
<g id="edge15" class="edge">
<title>LoginService&#45;&gt;AppModule</title>
<path fill="none" stroke="#000000" d="M87,-122.0908C87,-145.1328 87,-182 87,-182 87,-182 1072.064,-182 1072.064,-182"/>
<polygon fill="#000000" stroke="#000000" points="1072.064,-185.5001 1082.064,-182 1072.064,-178.5001 1072.064,-185.5001"/>
</g>
</g>
</svg>
