<?xml version="1.0" encoding="UTF-8" standalone="no"?>
<!DOCTYPE svg PUBLIC "-//W3C//DTD SVG 1.1//EN"
 "http://www.w3.org/Graphics/SVG/1.1/DTD/svg11.dtd">
<!-- Generated by graphviz version 2.40.1 (20161225.0304)
 -->
<!-- Title: dependencies Pages: 1 -->
<svg width="2366pt" height="284pt"
 viewBox="0.00 0.00 2366.00 284.00" xmlns="http://www.w3.org/2000/svg" xmlns:xlink="http://www.w3.org/1999/xlink">
<g id="graph0" class="graph" transform="scale(1 1) rotate(0) translate(4 280)">
<title>dependencies</title>
<polygon fill="#ffffff" stroke="transparent" points="-4,4 -4,-280 2362,-280 2362,4 -4,4"/>
<text text-anchor="start" x="1158.0091" y="-42.4" font-family="sans-serif" font-weight="bold" font-size="14.00" fill="#000000">Legend</text>
<polygon fill="#ffffb3" stroke="transparent" points="945,-10 945,-30 965,-30 965,-10 945,-10"/>
<text text-anchor="start" x="968.629" y="-15.4" font-family="sans-serif" font-size="14.00" fill="#000000"> &#160;Declarations</text>
<polygon fill="#8dd3c7" stroke="transparent" points="1058,-10 1058,-30 1078,-30 1078,-10 1058,-10"/>
<text text-anchor="start" x="1081.7251" y="-15.4" font-family="sans-serif" font-size="14.00" fill="#000000"> &#160;Module</text>
<polygon fill="#80b1d3" stroke="transparent" points="1144,-10 1144,-30 1164,-30 1164,-10 1144,-10"/>
<text text-anchor="start" x="1167.7812" y="-15.4" font-family="sans-serif" font-size="14.00" fill="#000000"> &#160;Bootstrap</text>
<polygon fill="#fdb462" stroke="transparent" points="1241,-10 1241,-30 1261,-30 1261,-10 1241,-10"/>
<text text-anchor="start" x="1264.6732" y="-15.4" font-family="sans-serif" font-size="14.00" fill="#000000"> &#160;Providers</text>
<polygon fill="#fb8072" stroke="transparent" points="1337,-10 1337,-30 1357,-30 1357,-10 1337,-10"/>
<text text-anchor="start" x="1360.7258" y="-15.4" font-family="sans-serif" font-size="14.00" fill="#000000"> &#160;Exports</text>
<g id="clust1" class="cluster">
<title>cluster_AdminModule</title>
<polygon fill="none" stroke="#000000" stroke-dasharray="1,5" points="8,-70 8,-195 160,-195 160,-70 8,-70"/>
</g>
<g id="clust2" class="cluster">
<title>cluster_AdminModule_declarations</title>
<polygon fill="none" stroke="#000000" points="16,-78 16,-130 152,-130 152,-78 16,-78"/>
</g>
<g id="clust8" class="cluster">
<title>cluster_AppModule</title>
<polygon fill="none" stroke="#000000" stroke-dasharray="1,5" points="168,-70 168,-268 2350,-268 2350,-70 168,-70"/>
</g>
<g id="clust9" class="cluster">
<title>cluster_AppModule_declarations</title>
<polygon fill="none" stroke="#000000" points="458,-78 458,-130 2342,-130 2342,-78 458,-78"/>
</g>
<g id="clust24" class="cluster">
<title>cluster_AppModule_bootstrap</title>
<polygon fill="none" stroke="#000000" points="1222,-208 1222,-260 1346,-260 1346,-208 1222,-208"/>
</g>
<g id="clust25" class="cluster">
<title>cluster_AppModule_providers</title>
<polygon fill="none" stroke="#000000" points="176,-78 176,-130 450,-130 450,-78 176,-78"/>
</g>
<!-- AdminComponent -->
<g id="node1" class="node">
<title>AdminComponent</title>
<polygon fill="#ffffb3" stroke="#000000" points="144.2204,-122 23.7796,-122 23.7796,-86 144.2204,-86 144.2204,-122"/>
<text text-anchor="middle" x="84" y="-99.8" font-family="Times,serif" font-size="14.00" fill="#000000">AdminComponent</text>
</g>
<!-- AdminModule -->
<g id="node2" class="node">
<title>AdminModule</title>
<polygon fill="#8dd3c7" stroke="#000000" points="133.4386,-187 130.4386,-191 109.4386,-191 106.4386,-187 34.5614,-187 34.5614,-151 133.4386,-151 133.4386,-187"/>
<text text-anchor="middle" x="84" y="-164.8" font-family="Times,serif" font-size="14.00" fill="#000000">AdminModule</text>
</g>
<!-- AdminComponent&#45;&gt;AdminModule -->
<g id="edge1" class="edge">
<title>AdminComponent&#45;&gt;AdminModule</title>
<path fill="none" stroke="#000000" d="M84,-122.1061C84,-122.1061 84,-140.991 84,-140.991"/>
<polygon fill="#000000" stroke="#000000" points="80.5001,-140.9909 84,-150.991 87.5001,-140.991 80.5001,-140.9909"/>
</g>
<!-- AppComponent -->
<g id="node3" class="node">
<title>AppComponent</title>
<polygon fill="#ffffb3" stroke="#000000" points="2333.9399,-122 2228.0601,-122 2228.0601,-86 2333.9399,-86 2333.9399,-122"/>
<text text-anchor="middle" x="2281" y="-99.8" font-family="Times,serif" font-size="14.00" fill="#000000">AppComponent</text>
</g>
<!-- AppModule -->
<g id="node15" class="node">
<title>AppModule</title>
<polygon fill="#8dd3c7" stroke="#000000" points="1325.6571,-187 1322.6571,-191 1301.6571,-191 1298.6571,-187 1242.3429,-187 1242.3429,-151 1325.6571,-151 1325.6571,-187"/>
<text text-anchor="middle" x="1284" y="-164.8" font-family="Times,serif" font-size="14.00" fill="#000000">AppModule</text>
</g>
<!-- AppComponent&#45;&gt;AppModule -->
<g id="edge2" class="edge">
<title>AppComponent&#45;&gt;AppModule</title>
<path fill="none" stroke="#000000" d="M2281,-122.0908C2281,-145.1328 2281,-182 2281,-182 2281,-182 1335.8862,-182 1335.8862,-182"/>
<polygon fill="#000000" stroke="#000000" points="1335.8863,-178.5001 1325.8862,-182 1335.8862,-185.5001 1335.8863,-178.5001"/>
</g>
<!-- CarouselComponent -->
<g id="node4" class="node">
<title>CarouselComponent</title>
<polygon fill="#ffffb3" stroke="#000000" points="2210.594,-122 2079.406,-122 2079.406,-86 2210.594,-86 2210.594,-122"/>
<text text-anchor="middle" x="2145" y="-99.8" font-family="Times,serif" font-size="14.00" fill="#000000">CarouselComponent</text>
</g>
<!-- CarouselComponent&#45;&gt;AppModule -->
<g id="edge3" class="edge">
<title>CarouselComponent&#45;&gt;AppModule</title>
<path fill="none" stroke="#000000" d="M2145,-122.0449C2145,-143.6623 2145,-177 2145,-177 2145,-177 1335.8188,-177 1335.8188,-177"/>
<polygon fill="#000000" stroke="#000000" points="1335.8188,-173.5001 1325.8188,-177 1335.8188,-180.5001 1335.8188,-173.5001"/>
</g>
<!-- CurrencySwitcherComponent -->
<g id="node5" class="node">
<title>CurrencySwitcherComponent</title>
<polygon fill="#ffffb3" stroke="#000000" points="2061.6797,-122 1878.3203,-122 1878.3203,-86 2061.6797,-86 2061.6797,-122"/>
<text text-anchor="middle" x="1970" y="-99.8" font-family="Times,serif" font-size="14.00" fill="#000000">CurrencySwitcherComponent</text>
</g>
<!-- CurrencySwitcherComponent&#45;&gt;AppModule -->
<g id="edge4" class="edge">
<title>CurrencySwitcherComponent&#45;&gt;AppModule</title>
<path fill="none" stroke="#000000" d="M1970,-122.2228C1970,-142.3652 1970,-172 1970,-172 1970,-172 1335.8797,-172 1335.8797,-172"/>
<polygon fill="#000000" stroke="#000000" points="1335.8798,-168.5001 1325.8797,-172 1335.8797,-175.5001 1335.8798,-168.5001"/>
</g>
<!-- EvenUppercasePipe -->
<g id="node6" class="node">
<title>EvenUppercasePipe</title>
<polygon fill="#ffffb3" stroke="#000000" points="1860.2255,-122 1731.7745,-122 1731.7745,-86 1860.2255,-86 1860.2255,-122"/>
<text text-anchor="middle" x="1796" y="-99.8" font-family="Times,serif" font-size="14.00" fill="#000000">EvenUppercasePipe</text>
</g>
<!-- EvenUppercasePipe&#45;&gt;AppModule -->
<g id="edge5" class="edge">
<title>EvenUppercasePipe&#45;&gt;AppModule</title>
<path fill="none" stroke="#000000" d="M1796,-122.2222C1796,-140.8285 1796,-167 1796,-167 1796,-167 1335.8991,-167 1335.8991,-167"/>
<polygon fill="#000000" stroke="#000000" points="1335.8991,-163.5001 1325.8991,-167 1335.8991,-170.5001 1335.8991,-163.5001"/>
</g>
<!-- HeaderComponent -->
<g id="node7" class="node">
<title>HeaderComponent</title>
<polygon fill="#ffffb3" stroke="#000000" points="1713.7437,-122 1592.2563,-122 1592.2563,-86 1713.7437,-86 1713.7437,-122"/>
<text text-anchor="middle" x="1653" y="-99.8" font-family="Times,serif" font-size="14.00" fill="#000000">HeaderComponent</text>
</g>
<!-- HeaderComponent&#45;&gt;AppModule -->
<g id="edge6" class="edge">
<title>HeaderComponent&#45;&gt;AppModule</title>
<path fill="none" stroke="#000000" d="M1653,-122.0336C1653,-139.0597 1653,-162 1653,-162 1653,-162 1335.9697,-162 1335.9697,-162"/>
<polygon fill="#000000" stroke="#000000" points="1335.9698,-158.5001 1325.9697,-162 1335.9697,-165.5001 1335.9698,-158.5001"/>
</g>
<!-- HelloComponent -->
<g id="node8" class="node">
<title>HelloComponent</title>
<polygon fill="#ffffb3" stroke="#000000" points="1574.4356,-122 1461.5644,-122 1461.5644,-86 1574.4356,-86 1574.4356,-122"/>
<text text-anchor="middle" x="1518" y="-99.8" font-family="Times,serif" font-size="14.00" fill="#000000">HelloComponent</text>
</g>
<!-- HelloComponent&#45;&gt;AppModule -->
<g id="edge7" class="edge">
<title>HelloComponent&#45;&gt;AppModule</title>
<path fill="none" stroke="#000000" d="M1518,-122.2396C1518,-137.5706 1518,-157 1518,-157 1518,-157 1335.8345,-157 1335.8345,-157"/>
<polygon fill="#000000" stroke="#000000" points="1335.8345,-153.5001 1325.8345,-157 1335.8345,-160.5001 1335.8345,-153.5001"/>
</g>
<!-- JasmineTestComponent -->
<g id="node9" class="node">
<title>JasmineTestComponent</title>
<polygon fill="#ffffb3" stroke="#000000" points="1444.0351,-122 1293.9649,-122 1293.9649,-86 1444.0351,-86 1444.0351,-122"/>
<text text-anchor="middle" x="1369" y="-99.8" font-family="Times,serif" font-size="14.00" fill="#000000">JasmineTestComponent</text>
</g>
<!-- JasmineTestComponent&#45;&gt;AppModule -->
<g id="edge8" class="edge">
<title>JasmineTestComponent&#45;&gt;AppModule</title>
<path fill="none" stroke="#000000" d="M1309.7805,-122.1061C1309.7805,-122.1061 1309.7805,-140.991 1309.7805,-140.991"/>
<polygon fill="#000000" stroke="#000000" points="1306.2806,-140.9909 1309.7805,-150.991 1313.2806,-140.991 1306.2806,-140.9909"/>
</g>
<!-- LicensePlateComponent -->
<g id="node10" class="node">
<title>LicensePlateComponent</title>
<polygon fill="#ffffb3" stroke="#000000" points="1275.3571,-122 1122.6429,-122 1122.6429,-86 1275.3571,-86 1275.3571,-122"/>
<text text-anchor="middle" x="1199" y="-99.8" font-family="Times,serif" font-size="14.00" fill="#000000">LicensePlateComponent</text>
</g>
<!-- LicensePlateComponent&#45;&gt;AppModule -->
<g id="edge9" class="edge">
<title>LicensePlateComponent&#45;&gt;AppModule</title>
<path fill="none" stroke="#000000" d="M1258.8002,-122.1061C1258.8002,-122.1061 1258.8002,-140.991 1258.8002,-140.991"/>
<polygon fill="#000000" stroke="#000000" points="1255.3002,-140.9909 1258.8002,-150.991 1262.3002,-140.991 1255.3002,-140.9909"/>
</g>
<!-- LoaderComponent -->
<g id="node11" class="node">
<title>LoaderComponent</title>
<polygon fill="#ffffb3" stroke="#000000" points="1104.4748,-122 983.5252,-122 983.5252,-86 1104.4748,-86 1104.4748,-122"/>
<text text-anchor="middle" x="1044" y="-99.8" font-family="Times,serif" font-size="14.00" fill="#000000">LoaderComponent</text>
</g>
<!-- LoaderComponent&#45;&gt;AppModule -->
<g id="edge10" class="edge">
<title>LoaderComponent&#45;&gt;AppModule</title>
<path fill="none" stroke="#000000" d="M1044,-122.2396C1044,-137.5706 1044,-157 1044,-157 1044,-157 1232.1952,-157 1232.1952,-157"/>
<polygon fill="#000000" stroke="#000000" points="1232.1952,-160.5001 1242.1952,-157 1232.1952,-153.5001 1232.1952,-160.5001"/>
</g>
<!-- LoaderViewChildComponent -->
<g id="node12" class="node">
<title>LoaderViewChildComponent</title>
<polygon fill="#ffffb3" stroke="#000000" points="965.4115,-122 782.5885,-122 782.5885,-86 965.4115,-86 965.4115,-122"/>
<text text-anchor="middle" x="874" y="-99.8" font-family="Times,serif" font-size="14.00" fill="#000000">LoaderViewChildComponent</text>
</g>
<!-- LoaderViewChildComponent&#45;&gt;AppModule -->
<g id="edge11" class="edge">
<title>LoaderViewChildComponent&#45;&gt;AppModule</title>
<path fill="none" stroke="#000000" d="M874,-122.0336C874,-139.0597 874,-162 874,-162 874,-162 1232.0496,-162 1232.0496,-162"/>
<polygon fill="#000000" stroke="#000000" points="1232.0496,-165.5001 1242.0496,-162 1232.0496,-158.5001 1232.0496,-165.5001"/>
</g>
<!-- LoginComponent -->
<g id="node13" class="node">
<title>LoginComponent</title>
<polygon fill="#ffffb3" stroke="#000000" points="764.2758,-122 649.7242,-122 649.7242,-86 764.2758,-86 764.2758,-122"/>
<text text-anchor="middle" x="707" y="-99.8" font-family="Times,serif" font-size="14.00" fill="#000000">LoginComponent</text>
</g>
<!-- LoginComponent&#45;&gt;AppModule -->
<g id="edge12" class="edge">
<title>LoginComponent&#45;&gt;AppModule</title>
<path fill="none" stroke="#000000" d="M707,-122.2222C707,-140.8285 707,-167 707,-167 707,-167 1232.0388,-167 1232.0388,-167"/>
<polygon fill="#000000" stroke="#000000" points="1232.0388,-170.5001 1242.0388,-167 1232.0388,-163.5001 1232.0388,-170.5001"/>
</g>
<!-- PopupWindowComponent -->
<g id="node14" class="node">
<title>PopupWindowComponent</title>
<polygon fill="#ffffb3" stroke="#000000" points="631.8271,-122 466.1729,-122 466.1729,-86 631.8271,-86 631.8271,-122"/>
<text text-anchor="middle" x="549" y="-99.8" font-family="Times,serif" font-size="14.00" fill="#000000">PopupWindowComponent</text>
</g>
<!-- PopupWindowComponent&#45;&gt;AppModule -->
<g id="edge13" class="edge">
<title>PopupWindowComponent&#45;&gt;AppModule</title>
<path fill="none" stroke="#000000" d="M549,-122.2228C549,-142.3652 549,-172 549,-172 549,-172 1232.1107,-172 1232.1107,-172"/>
<polygon fill="#000000" stroke="#000000" points="1232.1107,-175.5001 1242.1107,-172 1232.1106,-168.5001 1232.1107,-175.5001"/>
</g>
<!-- AppComponent  -->
<g id="node16" class="node">
<title>AppComponent </title>
<polygon fill="#80b1d3" stroke="#000000" points="1338.439,-252 1229.561,-252 1229.561,-216 1338.439,-216 1338.439,-252"/>
<text text-anchor="middle" x="1284" y="-229.8" font-family="Times,serif" font-size="14.00" fill="#000000">AppComponent </text>
</g>
<!-- AppModule&#45;&gt;AppComponent  -->
<g id="edge14" class="edge">
<title>AppModule&#45;&gt;AppComponent </title>
<path fill="none" stroke="#000000" stroke-dasharray="1,5" d="M1284,-187.1061C1284,-187.1061 1284,-205.991 1284,-205.991"/>
<polygon fill="#000000" stroke="#000000" points="1280.5001,-205.9909 1284,-215.991 1287.5001,-205.991 1280.5001,-205.9909"/>
</g>
<!-- CartService -->
<g id="node17" class="node">
<title>CartService</title>
<ellipse fill="#fdb462" stroke="#000000" cx="385" cy="-104" rx="56.7348" ry="18"/>
<text text-anchor="middle" x="385" y="-99.8" font-family="Times,serif" font-size="14.00" fill="#000000">CartService</text>
</g>
<!-- CartService&#45;&gt;AppModule -->
<g id="edge15" class="edge">
<title>CartService&#45;&gt;AppModule</title>
<path fill="none" stroke="#000000" d="M385,-122.0449C385,-143.6623 385,-177 385,-177 385,-177 1232.1442,-177 1232.1442,-177"/>
<polygon fill="#000000" stroke="#000000" points="1232.1443,-180.5001 1242.1442,-177 1232.1442,-173.5001 1232.1443,-180.5001"/>
</g>
<!-- LoginService -->
<g id="node18" class="node">
<title>LoginService</title>
<ellipse fill="#fdb462" stroke="#000000" cx="247" cy="-104" rx="63.1209" ry="18"/>
<text text-anchor="middle" x="247" y="-99.8" font-family="Times,serif" font-size="14.00" fill="#000000">LoginService</text>
</g>
<!-- LoginService&#45;&gt;AppModule -->
<g id="edge16" class="edge">
<title>LoginService&#45;&gt;AppModule</title>
<path fill="none" stroke="#000000" d="M247,-122.0908C247,-145.1328 247,-182 247,-182 247,-182 1232.064,-182 1232.064,-182"/>
<polygon fill="#000000" stroke="#000000" points="1232.064,-185.5001 1242.064,-182 1232.064,-178.5001 1232.064,-185.5001"/>
</g>
</g>
</svg>
